<svg width="120" height="28" viewBox="0 0 120 28" fill="none" xmlns="http://www.w3.org/2000/svg">
<path d="M54.0975 7.82422C53.8811 7.82422 53.6689 7.82816 53.4607 7.83999H40.3709L40.224 8.17915L35.1505 19.8366L30.424 8.17915H25.375L25.4607 8.3645L34.3056 27.6332H35.9628L43.5709 11.4603H54.5342V11.4721C57.3668 11.6614 58.7832 13.7318 58.7832 17.6834C58.7832 19.7025 58.3641 21.2576 57.526 22.3487C57.1399 22.8745 56.6252 23.2998 56.0276 23.5867C55.4301 23.8737 54.7684 24.0133 54.1015 23.9932C50.9668 23.9932 49.3981 21.8899 49.3954 17.6834C49.3954 15.7234 49.824 14.1972 50.6689 13.1008C50.7219 13.0338 50.775 12.9668 50.8281 12.9037H45.5954C44.9038 14.4069 44.5624 16.0386 44.5954 17.6834C44.5954 20.6884 45.4294 23.098 47.0975 24.9121C48.7655 26.7262 51.1002 27.6332 54.1015 27.6332C57.0444 27.6332 59.36 26.7354 61.0485 24.9397C62.7424 23.1453 63.5886 20.7279 63.5872 17.6873C63.5872 14.631 62.7587 12.224 61.1015 10.4665C59.4321 8.69971 57.1015 7.82422 54.0975 7.82422Z" fill="white"/>
<path d="M23.5082 9.86309C22.1477 8.50647 20.2919 7.82685 17.9408 7.82422C15.496 7.82422 13.647 8.53671 12.3939 9.96168L11.5449 8.17915H8.22656V27.2744H12.8347V13.4715C13.317 12.8869 13.9331 12.4184 14.6347 12.1031C15.3026 11.7579 16.0449 11.5688 16.8021 11.551C18.2633 11.551 19.3204 11.9296 19.9613 12.6749C20.6102 13.4242 20.934 14.6126 20.9327 16.24V27.2704H25.5449V15.5577C25.5463 15.0833 25.5177 14.6091 25.4592 14.138C25.318 12.5433 24.6316 11.0393 23.5082 9.86309Z" fill="white"/>
<path d="M118.687 0.694092H114.066V20.8068L118.687 19.742V0.694092Z" fill="white"/>
<path d="M5.20625 1.15552H0.40625V27.2704H5.20625V1.15552Z" fill="white"/>
<path d="M116.377 21.7415C115.774 21.7418 115.185 21.9149 114.684 22.2387C114.184 22.5625 113.793 23.0225 113.563 23.5606C113.333 24.0987 113.273 24.6907 113.391 25.2617C113.509 25.8327 113.799 26.357 114.226 26.7685C114.652 27.1799 115.195 27.4599 115.787 27.5732C116.378 27.6864 116.99 27.6277 117.547 27.4045C118.103 27.1813 118.579 26.8037 118.914 26.3193C119.248 25.835 119.426 25.2657 119.426 24.6834C119.425 23.9028 119.103 23.1544 118.532 22.6028C117.96 22.0511 117.185 21.7414 116.377 21.7415Z" fill="white"/>
<path d="M100.736 7.82422C100.536 7.82422 100.336 7.82816 100.136 7.83999H86.6911L86.5482 8.17915L81.4747 19.8366L76.7523 8.17915H71.6992L72.0788 9.00732L80.6298 27.6293H82.287L89.8421 11.5707H101.414C103.917 11.76 105.314 13.1482 105.605 15.7352H95.8992C96.0973 14.6903 96.5758 13.7139 97.287 12.9037H92.0788C91.2796 14.4653 90.882 16.1901 90.9196 17.9318C90.9196 20.9842 91.7972 23.3636 93.5523 25.0699C95.3033 26.7735 97.6911 27.6332 100.699 27.6332C103.924 27.6332 106.347 26.997 107.969 25.7245L106.181 22.3211C105.083 23.3741 103.491 23.9025 101.389 23.9025C99.6992 23.9025 98.3604 23.4845 97.3645 22.6366C96.3686 21.7966 95.8298 20.6096 95.74 19.0873H109.854C110.07 18.2765 110.201 17.4468 110.246 16.6107C110.286 15.4427 110.075 14.2794 109.628 13.1936C109.18 12.1078 108.506 11.123 107.646 10.3008C105.899 8.64844 103.601 7.82422 100.736 7.82422Z" fill="white"/>
<path d="M70.2843 21.4614V0L65.668 1.06479V23.4214C65.668 26.2254 66.721 27.6332 68.8108 27.6332C70.2557 27.6332 71.3455 27.1679 72.0843 26.2451C72.2276 26.064 72.3546 25.8714 72.4639 25.6693C72.3336 25.6303 72.2067 25.5815 72.0843 25.5234C70.8802 24.9515 70.2843 23.6028 70.2843 21.4614Z" fill="white"/>
</svg>
