<svg width="165" height="164" viewBox="0 0 165 164" fill="none" xmlns="http://www.w3.org/2000/svg">
<path d="M165 83.6675L153.704 82.9323L153.282 89.3041L154.451 89.3802L154.785 84.3391L164.912 84.9982L165 83.6675Z" fill="#111111"/>
<path d="M153.013 92.1576L151.569 99.0871L152.716 99.322L153.889 93.6985L157.858 94.5112L156.785 99.6584L157.932 99.8934L159.005 94.7462L162.68 95.4986L161.53 101.015L162.677 101.249L164.1 94.4275L153.013 92.1576Z" fill="#111111"/>
<path d="M149.928 104.548L149.469 105.801L159.011 109.228L157.932 112.178L159.033 112.574L161.65 105.42L160.548 105.024L159.469 107.974L149.928 104.548Z" fill="#111111"/>
<path d="M153.233 115.26C153.462 115.368 156.296 116.951 156.911 117.241L157.49 116.037C156.875 115.747 153.85 114.561 153.621 114.453L153.233 115.26Z" fill="#111111"/>
<path d="M148.677 116.022C146.653 115.091 144.787 115.801 143.55 117.809C142.287 119.858 142.469 121.88 144.266 122.968C145.861 123.933 147.225 123.104 148.69 121.84L149.324 121.323C150.541 120.312 151.411 119.773 152.438 120.394C153.37 120.959 153.476 122.052 152.708 123.297C151.941 124.542 150.901 124.906 149.58 124.4L148.895 125.512C150.745 126.392 152.392 125.827 153.589 123.885C154.819 121.89 154.556 120.058 153.043 119.143C151.556 118.243 150.248 118.83 148.685 120.163L148.141 120.625C147.001 121.571 146.014 122.389 144.852 121.686C143.771 121.032 143.594 119.784 144.452 118.392C145.343 116.946 146.568 116.584 147.975 117.16L148.677 116.022Z" fill="#111111"/>
<path d="M133.693 135.658C133.198 134.365 133.148 132.868 134.62 131.376C136.492 129.481 138.991 129.754 140.972 131.674C142.964 133.605 143.27 136.053 141.41 137.937C139.915 139.451 138.382 139.501 136.987 138.895L136.024 139.871C138.219 140.967 140.365 140.611 142.214 138.739C144.561 136.361 144.458 133.034 141.979 130.631C139.478 128.206 136.175 128.186 133.861 130.53C132.034 132.38 131.745 134.58 132.719 136.645L133.693 135.658Z" fill="#111111"/>
<path d="M134.063 145.963L127.371 136.915L122.173 140.691L122.866 141.627L126.978 138.64L132.978 146.751L134.063 145.963Z" fill="#111111"/>
<path d="M119.367 142.431L118.206 143.105L123.928 152.785L125.089 152.111L119.367 142.431Z" fill="#111111"/>
<path d="M108.496 151.327C108.547 149.945 109.089 148.547 111.032 147.741C113.5 146.717 115.695 147.933 116.765 150.466C117.841 153.013 117.162 155.387 114.708 156.404C112.736 157.222 111.305 156.677 110.258 155.58L108.987 156.107C110.578 157.964 112.695 158.464 115.134 157.452C118.23 156.168 119.442 153.063 118.103 149.894C116.752 146.695 113.717 145.403 110.665 146.669C108.255 147.668 107.124 149.583 107.211 151.86L108.496 151.327Z" fill="#111111"/>
<path d="M102.291 150.041L100.963 150.339L102.25 155.97C99.4904 153.839 97.4352 152.306 96.1916 151.411L94.5393 151.782C96.605 153.361 98.8651 155.009 100.893 156.565L97.1645 162.695L98.8167 162.324C99.5959 160.974 100.781 158.987 102.317 156.261L103.465 161.28L104.793 160.982L102.291 150.041Z" fill="#111111"/>
<path d="M85.5211 152.682L84.1757 152.712L84.4107 162.767L81.245 162.839L81.2721 164L88.949 163.824L88.9218 162.663L85.7561 162.736L85.5211 152.682Z" fill="#111111"/>
<path d="M71.5193 163.507C74.8575 163.982 77.4718 161.944 77.9666 158.527C78.4613 155.111 76.544 152.445 73.1745 151.966C69.7736 151.482 67.2243 153.513 66.7295 156.93C66.2325 160.362 68.1811 163.032 71.5193 163.507ZM71.6947 162.407C69.0774 162.034 67.7957 159.95 68.2005 157.155C68.5985 154.406 70.4603 152.705 73.0305 153.071C75.6635 153.445 76.9339 155.607 76.5381 158.34C76.1401 161.089 74.3119 162.779 71.6947 162.407Z" fill="#111111"/>
<path d="M59.9098 152.74C60.4757 150.601 59.4408 148.907 57.2268 148.056C54.9685 147.187 52.9923 147.723 52.2304 149.668C51.5544 151.394 52.6193 152.578 54.1343 153.783L54.7602 154.31C55.9791 155.318 56.669 156.071 56.2336 157.183C55.8384 158.192 54.7712 158.488 53.3985 157.96C52.0258 157.432 51.4808 156.482 51.7488 155.104L50.5237 154.633C49.9766 156.594 50.8302 158.1 52.9704 158.923C55.1697 159.769 56.9425 159.189 57.5841 157.55C58.2142 155.942 57.3994 154.77 55.7983 153.481L55.2438 153.032C54.102 152.088 53.1144 151.271 53.6071 150.013C54.0653 148.843 55.2726 148.449 56.8077 149.039C58.4018 149.652 58.978 150.783 58.6552 152.257L59.9098 152.74Z" fill="#111111"/>
<path d="M50.4468 145.517L44.2591 141.986L43.6744 142.992L48.6959 145.858L46.673 149.338L42.0768 146.715L41.4921 147.721L46.0883 150.344L44.2156 153.567L39.2901 150.755L38.7053 151.762L44.797 155.238L50.4468 145.517Z" fill="#111111"/>
<path d="M41.3521 140.169L35.7508 135.78L35.0241 136.691L39.5697 140.252L37.0559 143.403L32.8953 140.143L32.1686 141.054L36.3292 144.314L34.0019 147.231L29.5432 143.737L28.8166 144.648L34.3309 148.968L41.3521 140.169Z" fill="#111111"/>
<path d="M30.1515 130.853L29.3207 129.804L24.3261 133.688C23.0805 134.657 21.9319 135.57 21.2068 136.154L21.1971 136.141C21.6483 135.491 22.2437 134.769 22.9655 133.749L27.444 127.434L26.3884 126.101L20.5776 128.167C18.7987 128.793 16.7609 129.599 16.1925 129.822L16.1828 129.81C16.9052 129.248 18.9025 127.755 19.8366 127.028L24.3455 123.522L23.5147 122.473L14.609 129.398L15.9677 131.114L22.5381 128.737C23.2799 128.479 24.9058 127.813 25.8264 127.476L25.8362 127.488C25.287 128.294 24.3232 129.542 23.8568 130.224L19.809 135.964L21.2459 137.779L30.1515 130.853Z" fill="#111111"/>
<path d="M8.62783 119.953C10.1464 122.937 13.329 123.894 16.4391 122.34C19.5492 120.785 20.6571 117.701 19.1243 114.69C17.5772 111.65 14.4372 110.741 11.3272 112.296C8.20295 113.857 7.10923 116.969 8.62783 119.953ZM9.63867 119.465C8.44802 117.126 9.4386 114.891 11.9832 113.619C14.4854 112.369 16.9584 112.908 18.1277 115.205C19.3255 117.559 18.2642 119.829 15.7762 121.072C13.274 122.323 10.8293 121.805 9.63867 119.465Z" fill="#111111"/>
<path d="M15.1572 106.723L14.766 105.447L10.2061 106.82L9.67682 105.093L13.4267 101.078L12.9527 99.5322C11.7548 100.86 10.282 102.533 9.08543 103.812C8.40583 102.459 7.11164 101.422 5.23314 101.987C4.1424 102.316 3.41831 102.976 3.14121 103.962C2.8365 104.857 3.05989 105.855 3.39125 106.936L4.32551 109.984L15.1572 106.723ZM5.02506 108.379L4.4866 106.623C4.27029 105.917 4.20605 105.33 4.27873 104.865C4.38382 104.129 4.82334 103.619 5.71714 103.35C6.48975 103.118 7.07251 103.237 7.57282 103.628C8.00926 103.972 8.35405 104.557 8.60717 105.382L9.14563 107.139L5.02506 108.379Z" fill="#111111"/>
<path d="M12.2246 96.695L11.1833 89.6948L10.0242 89.8641L10.8692 95.545L6.85936 96.1307L6.08588 90.931L4.92678 91.1003L5.70025 96.3L1.98799 96.8423L1.1591 91.27L0 91.4393L1.02514 98.3309L12.2246 96.695Z" fill="#111111"/>
<path d="M7.59115 79.6081C7.63818 78.5109 6.7755 77.5637 5.65238 77.5165C4.52926 77.4692 3.60445 78.3411 3.55742 79.4383C3.50904 80.567 4.35658 81.4977 5.4797 81.545C6.60282 81.5923 7.54277 80.7367 7.59115 79.6081Z" fill="#111111"/>
<path d="M0.640824 67.8198L11.6909 70.257L13.0909 64.024L11.9473 63.7717L10.8396 68.703L0.933213 66.5181L0.640824 67.8198Z" fill="#111111"/>
<path d="M13.7679 61.3058L16.2764 54.6809L15.1795 54.273L13.1437 59.6493L9.34887 58.2383L11.2122 53.3174L10.1153 52.9095L8.25192 57.8304L4.73872 56.5241L6.73554 51.2507L5.63859 50.8428L3.16899 57.3649L13.7679 61.3058Z" fill="#111111"/>
<path d="M18.6622 49.6668L19.3078 48.4967L10.4034 43.6717L11.9226 40.9185L10.8946 40.3615L7.21046 47.0378L8.23844 47.5949L9.75769 44.8417L18.6622 49.6668Z" fill="#111111"/>
<path d="M17.2091 38.3036C16.9999 38.1619 14.4456 36.1654 13.8835 35.7847L13.124 36.8856C13.6861 37.2664 16.4906 38.9002 16.6998 39.0418L17.2091 38.3036Z" fill="#111111"/>
<path d="M21.746 38.3463C23.6023 39.5726 25.5555 39.1544 27.0887 37.3571C28.6526 35.5239 28.7846 33.4979 27.1765 32.1507C25.7497 30.9555 24.2735 31.568 22.6303 32.5951L21.9239 33.01C20.5659 33.8241 19.6224 34.2253 18.7035 33.4555C17.8692 32.7566 17.9337 31.6603 18.8843 30.546C19.8349 29.4317 20.9189 29.2303 22.1465 29.9299L22.9949 28.9355C21.3022 27.7846 19.587 28.094 18.1049 29.8314C16.5819 31.6167 16.5586 33.4667 17.9128 34.6011C19.2428 35.7153 20.6261 35.3332 22.3772 34.2526L22.986 33.8792C24.2585 33.1167 25.3599 32.4575 26.3997 33.3285C27.3671 34.1388 27.35 35.3983 26.2869 36.6444C25.183 37.9384 23.9168 38.1104 22.6148 37.3279L21.746 38.3463Z" fill="#111111"/>
<path d="M39.6759 21.1156C39.9622 22.469 39.7762 23.9557 38.087 25.2016C35.9405 26.7847 33.5142 26.1296 31.8599 23.927C30.1961 21.7119 30.278 19.2458 32.4118 17.6721C34.1264 16.4074 35.6488 16.5949 36.9314 17.4092L38.0364 16.5942C36.0404 15.1718 33.8649 15.1921 31.7438 16.7565C29.0512 18.7425 28.6306 22.0452 30.7008 24.8014C32.79 27.5829 36.0496 28.1125 38.7041 26.1546C40.7998 24.609 41.4314 22.4806 40.7935 20.2912L39.6759 21.1156Z" fill="#111111"/>
<path d="M40.6922 10.9755L45.9018 20.9349L51.6229 17.9963L51.0837 16.9655L46.5575 19.2905L41.887 10.3618L40.6922 10.9755Z" fill="#111111"/>
<path d="M54.6429 16.6876L55.8957 16.2004L51.7602 5.7578L50.5075 6.24498L54.6429 16.6876Z" fill="#111111"/>
<path d="M66.9749 9.49164C66.7042 10.8483 65.9464 12.1445 63.9 12.6365C61.2997 13.2618 59.3251 11.7185 58.6718 9.05026C58.0147 6.36681 59.0633 4.12887 61.6482 3.50733C63.7254 3.00788 65.0526 3.77045 65.9117 5.01689L67.2503 4.69502C65.9746 2.61236 63.9643 1.78801 61.3948 2.40585C58.1329 3.19018 56.4423 6.0668 57.26 9.40588C58.0851 12.7754 60.8761 14.526 64.0918 13.7528C66.6306 13.1424 68.0519 11.4283 68.3289 9.16607L66.9749 9.49164Z" fill="#111111"/>
<path d="M72.6064 11.7286L73.9647 11.635L73.5604 5.87524C75.9595 8.39925 77.7542 10.2257 78.8453 11.2986L80.5353 11.1821C78.7373 9.30871 76.7579 7.33768 74.9938 5.49336L79.6235 0L77.9334 0.11648C76.9554 1.33198 75.4777 3.11664 73.5396 5.57786L73.1792 0.444148L71.8209 0.537767L72.6064 11.7286Z" fill="#111111"/>
<path d="M89.7006 11.5975L91.0348 11.7717L92.3605 1.80094L95.5 2.21083L95.653 1.05976L88.0399 0.0657961L87.8868 1.21686L91.0263 1.62674L89.7006 11.5975Z" fill="#111111"/>
<path d="M104.942 2.91408C101.715 1.94269 98.8189 3.56323 97.8064 6.86585C96.794 10.1685 98.2805 13.092 101.538 14.0725C104.825 15.0621 107.656 13.4384 108.668 10.1357C109.686 6.81811 108.169 3.88548 104.942 2.91408ZM104.6 3.97537C107.13 4.73698 108.077 6.9899 107.249 9.69205C106.434 12.3492 104.334 13.75 101.849 13.0021C99.3041 12.2359 98.3796 9.90794 99.1896 7.26585C100.004 4.60874 102.07 3.21376 104.6 3.97537Z" fill="#111111"/>
<path d="M114.88 15.2753C113.985 17.3007 114.742 19.1334 116.796 20.3154C118.89 21.5211 120.927 21.296 121.984 19.4916C122.923 17.8907 122.056 16.5574 120.749 15.1335L120.213 14.5167C119.167 13.334 118.603 12.4835 119.208 11.4524C119.756 10.5163 120.857 10.3878 122.13 11.1206C123.404 11.8535 123.793 12.876 123.312 14.1959L124.449 14.85C125.297 12.9974 124.689 11.3779 122.704 10.2353C120.664 9.06114 118.822 9.36155 117.931 10.881C117.057 12.3734 117.678 13.6563 119.057 15.1761L119.535 15.7049C120.515 16.8133 121.362 17.7728 120.678 18.9395C120.042 20.0249 118.788 20.2282 117.364 19.4086C115.885 18.5576 115.493 17.3521 116.043 15.9451L114.88 15.2753Z" fill="#111111"/>
<path d="M123.396 24.0214L128.965 28.4503L129.698 27.5449L125.179 23.9506L127.716 20.8182L131.852 24.108L132.586 23.2026L128.449 19.9128L130.798 17.0128L135.231 20.5383L135.964 19.6329L130.482 15.2727L123.396 24.0214Z" fill="#111111"/>
<path d="M131.418 30.5292L136.281 35.7111L137.139 34.9205L133.193 30.7153L136.161 27.9802L139.773 31.8293L140.631 31.0387L137.019 27.1896L139.767 24.6576L143.638 28.7824L144.496 27.9918L139.709 22.8904L131.418 30.5292Z" fill="#111111"/>
<path d="M141.195 41.5431L141.853 42.7061L147.39 39.6266C148.77 38.8587 150.047 38.1308 150.854 37.6641L150.861 37.6778C150.315 38.2516 149.615 38.8749 148.744 39.7732L143.341 45.3329L144.178 46.8105L150.24 45.652C152.095 45.3041 154.233 44.8163 154.829 44.6827L154.837 44.6964C154.036 45.1418 151.831 46.3141 150.796 46.89L145.798 49.67L146.457 50.8329L156.328 45.3421L155.251 43.4404L148.391 44.7914C147.618 44.9334 145.908 45.3446 144.946 45.5378L144.938 45.5241C145.606 44.8111 146.751 43.7241 147.318 43.1213L152.206 38.0636L151.066 36.0524L141.195 41.5431Z" fill="#111111"/>
<path d="M160.833 55.7175C159.805 52.535 156.812 51.0961 153.495 52.1492C150.178 53.2023 148.597 56.0767 149.635 59.2891C150.684 62.5313 153.642 63.9152 156.959 62.8621C160.291 61.8042 161.862 58.9 160.833 55.7175ZM159.758 56.0424C160.565 58.5376 159.234 60.5912 156.52 61.4529C153.851 62.3001 151.493 61.3846 150.701 58.9343C149.89 56.4241 151.296 54.3466 153.95 53.5041C156.619 52.6568 158.951 53.5472 159.758 56.0424Z" fill="#111111"/>
<path d="M152.31 67.781L152.497 69.1018L157.216 68.449L157.468 70.236L153.133 73.6236L153.359 75.2241C154.751 74.0969 156.468 72.6713 157.851 71.5929C158.31 73.0344 159.425 74.2583 161.37 73.9894C162.499 73.8332 163.318 73.2922 163.746 72.3617C164.188 71.5244 164.124 70.5035 163.967 69.3847L163.522 66.2304L152.31 67.781ZM162.579 67.7073L162.835 69.5253C162.938 70.2557 162.909 70.8458 162.765 71.2935C162.545 72.005 162.031 72.4405 161.106 72.5685C160.306 72.6791 159.749 72.471 159.316 72.0081C158.939 71.6008 158.691 70.9699 158.57 70.1152L158.314 68.2972L162.579 67.7073Z" fill="#111111"/>
</svg>
