<svg width="166" height="166" viewBox="0 0 166 166" fill="none" xmlns="http://www.w3.org/2000/svg">
<path d="M154.775 84.8333L154.472 90.4351L153.623 90.3892L153.975 83.8877L165.858 84.5303L165.809 85.43L154.775 84.8333Z" fill="white"/>
<path d="M154.053 93.385L153.028 99.246L152.191 99.0995L153.371 92.351L165.093 94.4015L163.927 101.066L163.09 100.92L164.101 95.1425L159.546 94.3458L158.608 99.7044L157.771 99.5579L158.708 94.1993L154.053 93.385Z" fill="white"/>
<path d="M161.126 110.816L160.313 110.569L161.4 106.99L150.827 103.778L151.094 102.9L161.667 106.112L162.754 102.533L163.567 102.78L161.126 110.816Z" fill="white"/>
<path d="M157.362 114.195L159.872 113.737L160.251 112.79L157.665 113.438L157.362 114.195Z" fill="white"/>
<path d="M146.117 114.969C146.612 113.987 147.255 113.265 148.048 112.801C148.845 112.353 149.689 112.201 150.581 112.346L150.639 113.251C149.884 113.112 149.179 113.213 148.524 113.556C147.864 113.908 147.32 114.509 146.891 115.359C146.457 116.22 146.323 116.977 146.488 117.631C146.648 118.296 147.041 118.786 147.669 119.103C148.256 119.399 148.818 119.403 149.356 119.116C149.895 118.829 150.553 118.291 151.331 117.503C151.616 117.216 151.824 117.003 151.957 116.867C152.094 116.746 152.292 116.567 152.552 116.329C152.821 116.097 153.037 115.933 153.199 115.837C153.362 115.742 153.57 115.631 153.824 115.505C154.073 115.389 154.296 115.324 154.494 115.31C154.702 115.3 154.93 115.314 155.178 115.35C155.436 115.391 155.697 115.479 155.96 115.611C156.82 116.045 157.355 116.696 157.565 117.563C157.78 118.446 157.655 119.347 157.191 120.268C156.772 121.098 156.208 121.702 155.497 122.08C154.786 122.457 154.033 122.617 153.237 122.558L153.202 121.684C154.682 121.795 155.753 121.193 156.417 119.878C156.784 119.149 156.885 118.471 156.72 117.841C156.555 117.212 156.174 116.747 155.577 116.446C155 116.155 154.468 116.141 153.981 116.403C153.493 116.665 152.865 117.179 152.097 117.947C151.609 118.437 151.212 118.808 150.908 119.061C150.608 119.328 150.242 119.588 149.81 119.84C149.383 120.107 148.96 120.242 148.539 120.246C148.128 120.255 147.706 120.149 147.27 119.93C146.39 119.486 145.842 118.81 145.628 117.902C145.423 116.999 145.586 116.021 146.117 114.969Z" fill="white"/>
<path d="M138.713 126.599C139.389 125.732 140.16 125.147 141.027 124.846C141.896 124.56 142.754 124.575 143.6 124.889L143.482 125.788C142.769 125.505 142.057 125.469 141.348 125.678C140.633 125.896 139.982 126.381 139.397 127.132C138.805 127.892 138.527 128.609 138.562 129.283C138.591 129.966 138.882 130.523 139.436 130.955C139.955 131.359 140.506 131.472 141.09 131.294C141.673 131.117 142.423 130.717 143.339 130.094C143.674 129.867 143.92 129.699 144.076 129.591C144.234 129.498 144.463 129.361 144.763 129.178C145.073 129.002 145.316 128.883 145.494 128.821C145.672 128.758 145.898 128.69 146.171 128.615C146.438 128.55 146.669 128.529 146.866 128.553C147.072 128.584 147.293 128.642 147.53 128.725C147.775 128.816 148.014 128.952 148.246 129.133C149.006 129.725 149.406 130.467 149.444 131.358C149.484 132.266 149.187 133.126 148.553 133.94C147.982 134.673 147.311 135.156 146.541 135.389C145.77 135.622 145.001 135.633 144.231 135.422L144.366 134.557C145.796 134.953 146.964 134.57 147.869 133.407C148.371 132.763 148.601 132.117 148.561 131.468C148.521 130.819 148.237 130.289 147.709 129.878C147.2 129.481 146.68 129.364 146.151 129.526C145.622 129.689 144.907 130.073 144.005 130.678C143.431 131.064 142.97 131.351 142.622 131.54C142.276 131.744 141.867 131.929 141.395 132.092C140.924 132.272 140.483 132.323 140.069 132.245C139.665 132.174 139.27 131.989 138.886 131.689C138.108 131.084 137.701 130.314 137.666 129.382C137.64 128.457 137.989 127.529 138.713 126.599Z" fill="white"/>
<path d="M131.315 134.685C132.613 133.451 134.091 132.86 135.749 132.91C137.415 132.968 138.841 133.622 140.028 134.871C141.215 136.119 141.791 137.573 141.757 139.231C141.731 140.898 141.068 142.348 139.77 143.582C138.982 144.331 138.079 144.83 137.063 145.076C136.054 145.331 135.069 145.314 134.106 145.025L134.369 144.142C135.164 144.403 135.993 144.428 136.856 144.217C137.727 144.015 138.5 143.594 139.173 142.953C140.29 141.892 140.859 140.648 140.879 139.221C140.899 137.811 140.398 136.567 139.375 135.491C138.352 134.415 137.132 133.847 135.715 133.787C134.297 133.743 133.029 134.252 131.912 135.313C131.239 135.954 130.775 136.707 130.52 137.575C130.265 138.442 130.256 139.288 130.492 140.111L129.596 140.329C129.34 139.352 129.362 138.355 129.66 137.336C129.967 136.326 130.518 135.442 131.315 134.685Z" fill="white"/>
<path d="M120.353 143.441L125.482 145.82L128.568 143.677L125.785 139.669L126.525 139.155L133.312 148.93L129.458 151.606C128.667 152.155 127.79 152.343 126.828 152.17C125.866 151.996 125.11 151.514 124.561 150.723C124.102 150.062 123.899 149.333 123.953 148.537C123.998 147.747 124.274 147.051 124.782 146.451L119.501 144.032L120.353 143.441ZM132.087 148.745L129.052 144.375L125.939 146.537C125.343 146.951 124.981 147.513 124.853 148.222C124.731 148.941 124.881 149.604 125.301 150.209C125.721 150.814 126.289 151.185 127.005 151.322C127.722 151.46 128.378 151.321 128.974 150.908L132.087 148.745Z" fill="white"/>
<path d="M110.053 150.498C110.615 148.911 111.669 147.75 113.214 147.014C114.758 146.277 116.324 146.19 117.91 146.752C119.501 147.325 120.663 148.378 121.394 149.913C122.126 151.447 122.21 153.007 121.648 154.594C121.091 156.19 120.04 157.357 118.495 158.093C116.95 158.83 115.382 158.912 113.791 158.339C112.205 157.777 111.046 156.729 110.315 155.194C109.583 153.66 109.496 152.094 110.053 150.498ZM117.606 147.575C116.246 147.093 114.906 147.167 113.587 147.796C112.267 148.425 111.371 149.417 110.9 150.772C110.423 152.142 110.499 153.487 111.128 154.807C111.757 156.126 112.751 157.027 114.111 157.509C115.465 158.006 116.802 157.94 118.122 157.31C119.442 156.681 120.34 155.682 120.817 154.312C121.289 152.957 121.21 151.62 120.581 150.3C119.952 148.981 118.96 148.072 117.606 147.575Z" fill="white"/>
<path d="M105.614 151.207L100.247 152.838L99.9995 152.024L106.229 150.132L109.688 161.518L108.826 161.78L105.614 151.207Z" fill="white"/>
<path d="M97.5028 153.383L91.9804 154.371L91.8307 153.534L98.24 152.388L100.335 164.102L99.4484 164.261L97.5028 153.383Z" fill="white"/>
<path d="M77.7028 165.818L77.716 164.968L81.4555 165.026L81.6261 153.977L82.544 153.991L82.3734 165.04L86.113 165.098L86.0998 165.948L77.7028 165.818Z" fill="white"/>
<path d="M66.1658 153.788C67.5393 152.816 69.0695 152.474 70.7564 152.762C72.4432 153.051 73.7729 153.882 74.7453 155.255C75.7158 156.64 76.0578 158.17 75.7713 159.846C75.4848 161.521 74.6547 162.846 73.2812 163.818C71.9058 164.802 70.3746 165.149 68.6877 164.861C67.0009 164.572 65.6722 163.736 64.7017 162.351C63.7293 160.977 63.3863 159.453 63.6728 157.777C63.9594 156.101 64.7903 154.772 66.1658 153.788ZM74.0221 155.752C73.1886 154.575 72.0513 153.863 70.6102 153.617C69.1692 153.37 67.8655 153.665 66.6994 154.5C65.5202 155.345 64.8074 156.488 64.561 157.929C64.3146 159.37 64.6081 160.679 65.4416 161.857C66.262 163.043 67.3928 163.76 68.8339 164.006C70.275 164.253 71.5851 163.953 72.7643 163.109C73.9305 162.273 74.6368 161.135 74.8832 159.694C75.1296 158.253 74.8426 156.939 74.0221 155.752Z" fill="white"/>
<path d="M55.6262 148.353C56.6419 148.774 57.4103 149.362 57.9315 150.118C58.4379 150.879 58.6519 151.71 58.5736 152.61L57.6755 152.735C57.7585 151.972 57.6049 151.277 57.2147 150.649C56.8141 150.017 56.174 149.519 55.2945 149.154C54.4044 148.786 53.6393 148.708 52.999 148.921C52.3482 149.13 51.8883 149.559 51.6195 150.208C51.3679 150.816 51.4053 151.377 51.7316 151.892C52.0578 152.408 52.6428 153.024 53.4865 153.742C53.7948 154.004 54.0219 154.196 54.1677 154.318C54.2987 154.446 54.4922 154.63 54.7482 154.871C54.9998 155.123 55.1794 155.326 55.2869 155.481C55.3945 155.636 55.5205 155.835 55.6648 156.079C55.7987 156.319 55.8802 156.536 55.9094 156.732C55.9343 156.939 55.9378 157.167 55.92 157.418C55.8979 157.678 55.8305 157.945 55.7177 158.217C55.3491 159.107 54.7401 159.689 53.8907 159.963C53.0264 160.243 52.1179 160.185 51.1651 159.791C50.3065 159.435 49.6624 158.917 49.2329 158.236C48.8034 157.555 48.5883 156.816 48.5874 156.018L49.4569 155.918C49.4556 157.402 50.1356 158.426 51.4968 158.99C52.2507 159.302 52.9352 159.352 53.5502 159.141C54.1653 158.93 54.6007 158.515 54.8566 157.897C55.1038 157.3 55.0787 156.769 54.7813 156.302C54.4839 155.835 53.9238 155.248 53.1011 154.539C52.5762 154.088 52.1766 153.72 51.9022 153.435C51.6131 153.156 51.3268 152.81 51.0435 152.399C50.7453 151.993 50.5788 151.58 50.5439 151.161C50.5047 150.752 50.5783 150.323 50.7648 149.873C51.1421 148.962 51.7755 148.365 52.665 148.084C53.5502 147.812 54.5373 147.902 55.6262 148.353Z" fill="white"/>
<path d="M49.2437 146.505L44.0659 143.574L44.4847 142.834L50.4465 146.209L44.5836 156.565L38.6958 153.231L39.1146 152.492L44.2184 155.381L46.4965 151.357L41.7625 148.677L42.1813 147.938L46.9153 150.618L49.2437 146.505Z" fill="white"/>
<path d="M42.0779 142.144L37.2791 138.627L37.7816 137.941L43.3071 141.991L36.2718 151.589L30.8149 147.589L31.3174 146.903L36.0477 150.371L38.7814 146.641L34.3939 143.425L34.8964 142.74L39.2839 145.956L42.0779 142.144Z" fill="white"/>
<path d="M17.2734 133.896L26.1915 126.017L26.788 126.693L18.8637 133.694L27.2572 132.153L27.3585 132.268L24.7955 140.408L32.7198 133.407L33.3163 134.082L24.3983 141.961L23.6554 141.12L26.1159 133.275L18.0276 134.75L17.2734 133.896Z" fill="white"/>
<path d="M18.4903 116.772C20.1247 117.173 21.3852 118.106 22.2718 119.569C23.1585 121.033 23.4011 122.582 22.9998 124.217C22.5888 125.857 21.6563 127.117 20.2023 127.998C18.7482 128.879 17.204 129.119 15.5696 128.717C13.9256 128.322 12.6602 127.392 11.7736 125.928C10.887 124.465 10.6491 122.913 11.0601 121.272C11.4614 119.638 12.3891 118.381 13.8432 117.5C15.2972 116.619 16.8463 116.376 18.4903 116.772ZM22.1505 123.996C22.4945 122.595 22.2877 121.269 21.5303 120.019C20.7728 118.768 19.6966 117.976 18.3016 117.641C16.891 117.303 15.5605 117.513 14.31 118.27C13.0595 119.028 12.2623 120.107 11.9183 121.508C11.5587 122.905 11.7577 124.229 12.5152 125.479C13.2726 126.73 14.3566 127.524 15.7672 127.862C17.1622 128.196 18.485 127.985 19.7355 127.227C20.9859 126.47 21.7909 125.393 22.1505 123.996Z" fill="white"/>
<path d="M15.6623 106.087L12.1971 110.554L13.5958 114.041L18.1241 112.225L18.4595 113.061L7.41481 117.491L5.66813 113.136C5.30951 112.242 5.32234 111.346 5.70662 110.447C6.0909 109.548 6.73009 108.919 7.62418 108.56C8.37102 108.261 9.12652 108.226 9.89069 108.457C10.6506 108.677 11.2666 109.102 11.7386 109.731L15.2762 105.125L15.6623 106.087ZM7.8683 116.338L12.8069 114.357L11.3956 110.839C11.1256 110.166 10.659 109.687 9.99576 109.404C9.32204 109.125 8.64332 109.122 7.9596 109.396C7.27588 109.671 6.78702 110.141 6.49301 110.809C6.19901 111.476 6.18701 112.147 6.45703 112.82L7.8683 116.338Z" fill="white"/>
<path d="M13.8029 102.808L12.334 97.0419L13.1577 96.8321L14.849 103.471L3.31735 106.409L1.64701 99.8522L2.4707 99.6424L3.91861 105.326L8.39949 104.184L7.0565 98.9127L7.88019 98.7028L9.22318 103.974L13.8029 102.808Z" fill="white"/>
<path d="M7.78187 90.1487C7.82062 90.5663 7.71256 90.9348 7.45767 91.2544C7.19045 91.5638 6.84807 91.7378 6.43053 91.7766C6.02427 91.8143 5.667 91.7052 5.35869 91.4492C5.04934 91.182 4.87528 90.8396 4.83653 90.4221C4.79882 90.0158 4.90794 89.6586 5.16387 89.3503C5.41981 89.0419 5.7509 88.8689 6.15716 88.8312C6.5747 88.7925 6.94326 88.9005 7.26285 89.1554C7.57116 89.4114 7.74416 89.7425 7.78187 90.1487Z" fill="white"/>
<path d="M11.0853 80.3222L11.453 74.7243L12.3011 74.78L11.8744 81.277L0 80.497L0.0590509 79.598L11.0853 80.3222Z" fill="white"/>
<path d="M11.8555 72.0913L12.9256 66.2383L13.7617 66.3912L12.5296 73.1305L0.823642 70.9904L2.04045 64.3347L2.87659 64.4876L1.82182 70.2569L6.37043 71.0885L7.34877 65.7372L8.18491 65.8901L7.20657 71.2414L11.8555 72.0913Z" fill="white"/>
<path d="M4.99856 54.3743L5.80901 54.6306L4.68139 58.1965L15.2172 61.5281L14.9404 62.4034L4.40461 59.0718L3.27699 62.6378L2.46654 62.3815L4.99856 54.3743Z" fill="white"/>
<path d="M8.65179 51.367L6.13832 51.8067L5.75153 52.7506L8.34236 52.1221L8.65179 51.367Z" fill="white"/>
<path d="M19.8993 50.6552C19.397 51.6331 18.748 52.3508 17.9523 52.8085C17.1517 53.2509 16.3062 53.3963 15.4157 53.2447L15.3648 52.3394C16.1184 52.4845 16.824 52.3882 17.4815 52.0507C18.1443 51.7031 18.6931 51.1059 19.1281 50.2591C19.5682 49.4022 19.7082 48.6459 19.5481 47.9903C19.3931 47.3246 19.0031 46.8312 18.3781 46.5102C17.7934 46.2099 17.2309 46.2012 16.6905 46.4842C16.1501 46.7673 15.488 47.2999 14.7039 48.0821C14.417 48.3679 14.2069 48.5785 14.0736 48.7139C13.9355 48.8341 13.7358 49.0118 13.4748 49.2472C13.2036 49.4774 12.9865 49.6398 12.8232 49.7343C12.66 49.8289 12.451 49.9381 12.1962 50.0621C11.9466 50.1759 11.7229 50.2394 11.5251 50.2524C11.3172 50.2603 11.0892 50.2452 10.8413 50.207C10.5833 50.1636 10.3232 50.0747 10.0611 49.94C9.20417 49.4999 8.674 48.8453 8.47056 47.9763C8.26222 47.0921 8.39366 46.1913 8.86489 45.2739C9.28951 44.4473 9.85865 43.8478 10.5723 43.4754C11.286 43.103 12.0404 42.949 12.8355 43.0134L12.864 43.888C11.3852 43.7655 10.3093 44.3595 9.63609 45.6701C9.26326 46.3959 9.15705 47.074 9.31746 47.7042C9.47788 48.3345 9.85548 48.8024 10.4503 49.1079C11.0249 49.4031 11.5569 49.4215 12.0463 49.1633C12.5357 48.905 13.1673 48.3949 13.9409 47.6328C14.4328 47.1465 14.8322 46.7783 15.139 46.5282C15.4409 46.2628 15.8087 46.0058 16.2422 45.7571C16.6709 45.4931 17.0955 45.3609 17.5163 45.3604C17.9269 45.3547 18.3489 45.4632 18.7824 45.6859C19.6595 46.1364 20.2021 46.8164 20.4101 47.726C20.6081 48.6303 20.4378 49.6068 19.8993 50.6552Z" fill="white"/>
<path d="M27.3318 39.1123C26.6499 39.9747 25.8744 40.5535 25.0053 40.8487C24.1343 41.1281 23.2766 41.1073 22.4322 40.7864L22.5572 39.8883C23.2686 40.1763 23.9795 40.2183 24.6899 40.0142C25.4073 39.8012 26.0612 39.3214 26.6517 38.5746C27.2491 37.8189 27.5327 37.104 27.5023 36.4298C27.4789 35.7467 27.1916 35.1873 26.6404 34.7515C26.1248 34.3438 25.5745 34.2266 24.9896 34.3998C24.4048 34.5731 23.6521 34.9677 22.7317 35.5836C22.3949 35.8085 22.1481 35.9746 21.9911 36.0817C21.8324 36.1728 21.6022 36.3087 21.3005 36.4892C20.99 36.6626 20.7455 36.78 20.5671 36.8412C20.3887 36.9024 20.1625 36.9692 19.8886 37.0415C19.6217 37.105 19.3899 37.124 19.1933 37.0986C18.9878 37.0661 18.7671 37.0072 18.5312 36.9218C18.2864 36.8294 18.0484 36.6919 17.8173 36.5091C17.0616 35.9116 16.668 35.1669 16.6363 34.275C16.6028 33.3672 16.9059 32.5088 17.5455 31.6998C18.1219 30.9708 18.7962 30.4926 19.5684 30.2651C20.3406 30.0377 21.1105 30.0324 21.8781 30.2493L21.737 31.113C20.3099 30.7069 19.1394 31.0818 18.2256 32.2375C17.7195 32.8776 17.4843 33.5224 17.5198 34.1717C17.5554 34.8211 17.8354 35.3532 18.36 35.7679C18.8667 36.1686 19.3851 36.2895 19.9152 36.1307C20.4453 35.9719 21.1635 35.5934 22.0699 34.9953C22.6465 34.6132 23.1095 34.3292 23.4589 34.1431C23.8064 33.9411 24.2169 33.76 24.6904 33.5997C25.1619 33.4236 25.6042 33.3759 26.017 33.4567C26.421 33.5305 26.8141 33.7186 27.1964 34.0208C27.9699 34.6323 28.3708 35.4044 28.3991 36.3371C28.4186 37.2626 28.0628 38.1877 27.3318 39.1123Z" fill="white"/>
<path d="M34.7945 31.0385C33.4876 32.2626 32.0052 32.8435 30.3475 32.7813C28.682 32.7107 27.2605 32.0468 26.0829 30.7896C24.9052 29.5323 24.3395 28.0745 24.3858 26.4163C24.4242 24.7497 25.0969 23.3044 26.4038 22.0803C27.1979 21.3365 28.104 20.845 29.1221 20.6057C30.1325 20.3581 31.1179 20.3823 32.0785 20.6783L31.8091 21.5595C31.016 21.2931 30.1871 21.2619 29.3225 21.4662C28.4501 21.6621 27.6748 22.0778 26.9965 22.7131C25.8716 23.7668 25.2938 25.0067 25.2632 26.4329C25.2331 27.8431 25.7255 29.09 26.7404 30.1736C27.7554 31.2572 28.9713 31.8342 30.3882 31.9046C31.8057 31.959 33.0768 31.4594 34.2018 30.4057C34.8801 29.7704 35.3496 29.02 35.6104 28.1546C35.8713 27.2891 35.8869 26.4437 35.6573 25.6183L36.5543 25.4071C36.8029 26.3855 36.7743 27.3828 36.4684 28.3991C36.1548 29.4072 35.5968 30.2869 34.7945 31.0385Z" fill="white"/>
<path d="M45.9866 22.2379L40.8842 19.8031L37.775 21.912L40.5137 25.9499L39.768 26.4556L33.0882 16.6072L36.9713 13.9735C37.7686 13.4328 38.6473 13.2544 39.6075 13.4385C40.5677 13.6226 41.3182 14.1133 41.8589 14.9105C42.3106 15.5765 42.5051 16.3073 42.4423 17.1031C42.3888 17.8925 42.1052 18.5848 41.5912 19.1798L46.8448 21.6558L45.9866 22.2379ZM34.311 16.8049L37.2978 21.2086L40.4353 19.0806C41.0355 18.6735 41.4036 18.1157 41.5394 17.4074C41.6688 16.6896 41.5268 16.0259 41.1133 15.4163C40.6998 14.8066 40.1357 14.4292 39.421 14.284C38.7062 14.1388 38.0487 14.2698 37.4485 14.677L34.311 16.8049Z" fill="white"/>
<path d="M56.2944 15.2928C55.7147 16.8727 54.6483 18.0222 53.0954 18.7413C51.5425 19.4605 49.9761 19.5301 48.3962 18.9504C46.8116 18.3603 45.662 17.294 44.9477 15.7514C44.2333 14.2088 44.166 12.6475 44.7458 11.0676C45.3208 9.47743 46.3847 8.32277 47.9376 7.60363C49.4905 6.88449 51.0593 6.81994 52.6439 7.40999C54.2238 7.98976 55.371 9.05095 56.0854 10.5936C56.7997 12.1362 56.8694 13.7026 56.2944 15.2928ZM48.7098 18.1307C50.064 18.6277 51.4044 18.5689 52.7311 17.9546C54.0577 17.3402 54.9644 16.3583 55.451 15.0089C55.9432 13.6444 55.8821 12.2988 55.2678 10.9722C54.6534 9.64554 53.6691 8.73374 52.3149 8.2368C50.9663 7.72481 49.6286 7.776 48.3019 8.39036C46.9753 9.00472 46.0659 9.99415 45.5737 11.3586C45.087 12.7081 45.1509 14.0461 45.7653 15.3728C46.3796 16.6994 47.3611 17.6187 48.7098 18.1307Z" fill="white"/>
<path d="M60.6695 14.6127L66.0555 13.0431L66.2933 13.8591L60.0423 15.6809L56.7127 4.25617L57.5778 4.00407L60.6695 14.6127Z" fill="white"/>
<path d="M68.8556 12.48L74.389 11.5557L74.529 12.3941L68.107 13.4668L66.1463 1.72944L67.035 1.58099L68.8556 12.48Z" fill="white"/>
<path d="M88.4715 0.194472L88.4519 1.04424L84.7129 0.957637L84.457 12.0047L83.5392 11.9834L83.7951 0.936379L80.0561 0.849772L80.0758 0L88.4715 0.194472Z" fill="white"/>
<path d="M99.7343 12.2327C98.3533 13.1946 96.8205 13.5249 95.1359 13.2235C93.4514 12.9222 92.1281 12.0811 91.1662 10.7001C90.2064 9.30803 89.8761 7.77527 90.1754 6.10183C90.4748 4.42839 91.3149 3.11073 92.6958 2.14885C94.0788 1.17582 95.6125 0.839967 97.2971 1.14129C98.9817 1.44262 100.304 2.28933 101.264 3.68143C102.226 5.06237 102.557 6.58956 102.258 8.263C101.958 9.93644 101.117 11.2597 99.7343 12.2327ZM91.8932 10.2084C92.7176 11.3921 93.8495 12.1127 95.2886 12.3701C96.7278 12.6275 98.0336 12.343 99.2061 11.5165C100.392 10.6809 101.113 9.54351 101.371 8.10435C101.628 6.66519 101.345 5.35378 100.52 4.17012C99.7089 2.9773 98.5836 2.25217 97.1445 1.99475C95.7053 1.73732 94.3929 2.02642 93.2072 2.86204C92.0347 3.6885 91.3198 4.82131 91.0623 6.26047C90.8049 7.69963 91.0819 9.01562 91.8932 10.2084Z" fill="white"/>
<path d="M110.397 17.703C109.385 17.2747 108.621 16.6809 108.105 15.9214C107.605 15.1559 107.397 14.3235 107.482 13.4242L108.381 13.3061C108.292 14.0685 108.441 14.765 108.826 15.3956C109.222 16.0307 109.858 16.5336 110.735 16.9045C111.622 17.2798 112.387 17.3632 113.029 17.1548C113.681 16.9508 114.144 16.5252 114.418 15.878C114.674 15.2726 114.641 14.711 114.318 14.1932C113.996 13.6753 113.416 13.0545 112.577 12.3308C112.271 12.0659 112.045 11.872 111.901 11.7492C111.77 11.6203 111.578 11.4345 111.324 11.1916C111.074 10.9383 110.896 10.7338 110.79 10.5781C110.684 10.4223 110.559 10.222 110.417 9.97714C110.284 9.73668 110.205 9.5183 110.177 9.322C110.154 9.11526 110.152 8.88683 110.171 8.63673C110.195 8.37619 110.265 8.11022 110.38 7.83883C110.755 6.9516 111.368 6.37426 112.22 6.10681C113.086 5.83334 113.994 5.89749 114.944 6.29925C115.8 6.66127 116.44 7.1843 116.864 7.86832C117.289 8.55235 117.498 9.2932 117.493 10.0909L116.623 10.1843C116.635 8.70054 115.963 7.6717 114.606 7.09776C113.855 6.77988 113.171 6.72435 112.554 6.93115C111.937 7.13796 111.499 7.54928 111.238 8.16513C110.987 8.7601 111.008 9.29201 111.302 9.76087C111.596 10.2297 112.151 10.8216 112.969 11.5365C113.49 11.9909 113.887 12.3618 114.159 12.6492C114.446 12.9306 114.73 13.2782 115.01 13.6921C115.305 14.0999 115.469 14.5136 115.501 14.9331C115.537 15.3422 115.46 15.7711 115.27 16.22C114.886 17.1281 114.248 17.7197 113.357 17.9948C112.469 18.2594 111.483 18.1621 110.397 17.703Z" fill="white"/>
<path d="M117.078 19.7246L122.223 22.7131L121.796 23.4481L115.872 20.007L121.849 9.71695L127.699 13.1153L127.272 13.8503L122.201 10.9045L119.878 14.9029L124.582 17.6353L124.155 18.3703L119.451 15.6379L117.078 19.7246Z" fill="white"/>
<path d="M124.282 24.1935L129.042 27.7635L128.532 28.4435L123.051 24.333L130.191 14.8129L135.604 18.8725L135.094 19.5525L130.402 16.0335L127.627 19.7327L131.979 22.9967L131.469 23.6767L127.117 20.4127L124.282 24.1935Z" fill="white"/>
<path d="M148.831 32.4442L139.855 40.2582L139.264 39.5786L147.239 32.6354L138.834 34.1146L138.734 33.9992L141.356 25.8784L133.381 32.8216L132.789 32.1421L141.765 24.3282L142.501 25.1744L139.984 33.0012L148.083 31.5852L148.831 32.4442Z" fill="white"/>
<path d="M147.637 49.7865C146.007 49.3671 144.757 48.4208 143.887 46.9473C143.016 45.4739 142.791 43.9222 143.21 42.2924C143.639 40.6568 144.586 39.4067 146.049 38.542C147.513 37.6774 149.06 37.4547 150.69 37.874C152.329 38.2876 153.584 39.2311 154.455 40.7045C155.325 42.1779 155.546 43.7325 155.117 45.3681C154.697 46.9979 153.756 48.2451 152.292 49.1098C150.828 49.9745 149.277 50.2 147.637 49.7865ZM144.057 42.5227C143.698 43.9197 143.89 45.2476 144.633 46.5064C145.377 47.7651 146.444 48.5693 147.836 48.919C149.242 49.2726 150.575 49.0777 151.834 48.3341C153.093 47.5904 153.902 46.5201 154.261 45.1231C154.636 43.7301 154.452 42.4042 153.708 41.1455C152.965 39.8867 151.889 39.0805 150.483 38.7268C149.091 38.3772 147.766 38.5742 146.508 39.3178C145.249 40.0614 144.432 41.1297 144.057 42.5227Z" fill="white"/>
<path d="M150.393 60.5552L153.908 56.1274L152.549 52.6249L148 54.3902L147.674 53.5502L158.768 49.2446L160.466 53.6187C160.814 54.5168 160.792 55.4131 160.397 56.3078C160.003 57.2024 159.357 57.824 158.459 58.1725C157.708 58.4637 156.953 58.4896 156.191 58.2502C155.434 58.0215 154.822 57.59 154.357 56.9559L150.768 61.5219L150.393 60.5552ZM158.302 50.3921L153.341 52.3173L154.713 55.8515C154.975 56.5277 155.437 57.0112 156.097 57.3022C156.767 57.589 157.446 57.5991 158.133 57.3326C158.819 57.0661 159.313 56.6007 159.615 55.9367C159.916 55.2726 159.936 54.6025 159.673 53.9263L158.302 50.3921Z" fill="white"/>
<path d="M152.16 63.6083L153.585 69.3851L152.759 69.5887L151.118 62.9371L162.672 60.087L164.293 66.6561L163.467 66.8597L162.063 61.1654L157.573 62.2728L158.876 67.5545L158.051 67.7581L156.748 62.4764L152.16 63.6083Z" fill="white"/>
<path d="M158.105 76.3899C158.069 75.972 158.18 75.6043 158.437 75.2867C158.707 74.9794 159.051 74.808 159.468 74.7725C159.875 74.7379 160.231 74.8497 160.538 75.108C160.845 75.3776 161.016 75.7214 161.052 76.1392C161.086 76.5457 160.975 76.9021 160.716 77.2085C160.458 77.5148 160.126 77.6852 159.719 77.7198C159.301 77.7554 158.933 77.6444 158.616 77.3871C158.31 77.1288 158.139 76.7964 158.105 76.3899Z" fill="white"/>
<path d="M83.7187 85.6825C85.2005 85.2854 86.0799 83.7622 85.6828 82.2804C85.2858 80.7985 83.7626 79.9192 82.2808 80.3162C80.7989 80.7133 79.9195 82.2364 80.3166 83.7183C80.7137 85.2001 82.2368 86.0795 83.7187 85.6825Z" fill="white"/>
</svg>
