<svg xmlns="http://www.w3.org/2000/svg" xmlns:xlink="http://www.w3.org/1999/xlink">
  <symbol id="arrow" viewBox="0 0 10 10">
    <g clip-path="url(#clip0)">
      <path
        d="M1.55974 9.55974L8.00857 2.82855L8.00856 8.5376L9.59814 8.5376L9.59816 0.179213L1.23979 0.179214L1.23979 1.7688L6.94883 1.76881L0.5 8.5L1.02987 9.02987L1.55974 9.55974Z"/>
    </g>
    <defs>
      <clipPath id="clip0">
        <rect width="10" height="10" fill="white"/>
      </clipPath>
    </defs>
  </symbol>
  <symbol id="logo"  viewBox="0 0 151 29">
    <path d="M11.78 22.42C8.58 22.42 5.92 21.4 3.8 19.36C1.66 17.28 0.59 14.66 0.59 11.5C0.59 8.3 1.66 5.68 3.8 3.64C5.92 1.6 8.63 0.579999 11.93 0.579999C14.35 0.579999 16.45 1.11 18.23 2.17V6.43C16.29 5.23 14.29 4.63 12.23 4.63C10.09 4.63 8.35 5.27 7.01 6.55C5.67 7.81 5 9.49 5 11.59C5 13.67 5.65 15.33 6.95 16.57C8.25 17.81 9.86 18.43 11.78 18.43C13.62 18.43 15.03 17.97 16.01 17.05V9.82H20.33V19.09C19.43 20.05 18.23 20.84 16.73 21.46C15.17 22.1 13.52 22.42 11.78 22.42ZM26.498 22H22.268V7.03H26.498V9.55C26.958 8.75 27.658 8.07 28.598 7.51C29.578 6.93 30.618 6.64 31.718 6.64C31.958 6.64 32.118 6.65 32.198 6.67V10.81C31.798 10.71 31.358 10.66 30.878 10.66C29.898 10.66 28.998 10.92 28.178 11.44C27.378 11.94 26.818 12.55 26.498 13.27V22ZM40.4736 22.39C38.1336 22.39 36.1636 21.67 34.5636 20.23C32.9636 18.79 32.1636 16.88 32.1636 14.5C32.1636 12.28 32.8836 10.42 34.3236 8.92C35.7636 7.4 37.6436 6.64 39.9636 6.64C42.1236 6.64 43.8536 7.41 45.1536 8.95C46.4536 10.49 47.1036 12.36 47.1036 14.56V15.67H36.3636C36.5836 16.67 37.1336 17.44 38.0136 17.98C38.9136 18.52 40.0336 18.79 41.3736 18.79C43.0336 18.79 44.6336 18.35 46.1736 17.47V20.86C44.8336 21.88 42.9336 22.39 40.4736 22.39ZM36.3636 12.97H42.9336C42.8936 12.11 42.5836 11.4 42.0036 10.84C41.4436 10.26 40.7036 9.97 39.7836 9.97C38.8436 9.97 38.0636 10.25 37.4436 10.81C36.8236 11.35 36.4636 12.07 36.3636 12.97ZM50.5009 28.18C49.2609 28.18 48.2609 27.98 47.5009 27.58V23.89C48.2009 24.29 48.9609 24.49 49.7809 24.49C50.5409 24.49 51.1709 24.25 51.6709 23.77C52.1909 23.31 52.6709 22.55 53.1109 21.49L46.6609 7.03H51.2209L55.1809 16.87L58.9309 7.03H63.4009L56.4709 23.56C55.1509 26.64 53.1609 28.18 50.5009 28.18ZM74.8339 22.42C71.6339 22.42 68.9739 21.4 66.8539 19.36C64.7139 17.28 63.6439 14.66 63.6439 11.5C63.6439 8.3 64.7139 5.68 66.8539 3.64C68.9739 1.6 71.6839 0.579999 74.9839 0.579999C77.4039 0.579999 79.5039 1.11 81.2839 2.17V6.43C79.3439 5.23 77.3439 4.63 75.2839 4.63C73.1439 4.63 71.4039 5.27 70.0639 6.55C68.7239 7.81 68.0539 9.49 68.0539 11.59C68.0539 13.67 68.7039 15.33 70.0039 16.57C71.3039 17.81 72.9139 18.43 74.8339 18.43C76.6739 18.43 78.0839 17.97 79.0639 17.05V9.82H83.3839V19.09C82.4839 20.05 81.2839 20.84 79.7839 21.46C78.2239 22.1 76.5739 22.42 74.8339 22.42ZM89.312 22.39C88.072 22.39 87.092 22.06 86.372 21.4C85.672 20.72 85.322 19.67 85.322 18.25V0.999999H89.552V17.14C89.552 18.14 90.002 18.64 90.902 18.64C91.322 18.64 91.682 18.55 91.982 18.37V21.85C91.262 22.21 90.372 22.39 89.312 22.39ZM96.2527 14.5C96.2527 15.7 96.6427 16.7 97.4227 17.5C98.2027 18.3 99.1927 18.7 100.393 18.7C101.593 18.7 102.583 18.3 103.363 17.5C104.143 16.68 104.533 15.68 104.533 14.5C104.533 13.3 104.143 12.31 103.363 11.53C102.583 10.73 101.593 10.33 100.393 10.33C99.1927 10.33 98.2027 10.73 97.4227 11.53C96.6427 12.31 96.2527 13.3 96.2527 14.5ZM92.0827 14.5C92.0827 12.28 92.8627 10.42 94.4227 8.92C95.9627 7.4 97.9527 6.64 100.393 6.64C102.833 6.64 104.823 7.4 106.363 8.92C107.923 10.44 108.703 12.3 108.703 14.5C108.703 16.74 107.923 18.62 106.363 20.14C104.803 21.64 102.813 22.39 100.393 22.39C97.9727 22.39 95.9827 21.64 94.4227 20.14C92.8627 18.62 92.0827 16.74 92.0827 14.5ZM119.173 22.39C117.013 22.39 115.373 21.65 114.253 20.17V22H110.023V0.999999H114.253V8.86C115.433 7.38 117.073 6.64 119.173 6.64C121.213 6.64 122.893 7.4 124.213 8.92C125.553 10.4 126.223 12.26 126.223 14.5C126.223 16.74 125.553 18.62 124.213 20.14C122.893 21.64 121.213 22.39 119.173 22.39ZM117.973 18.7C119.173 18.7 120.143 18.3 120.883 17.5C121.643 16.68 122.023 15.68 122.023 14.5C122.023 13.34 121.643 12.35 120.883 11.53C120.143 10.73 119.173 10.33 117.973 10.33C117.173 10.33 116.443 10.54 115.783 10.96C115.123 11.36 114.613 11.89 114.253 12.55V16.45C114.613 17.11 115.123 17.65 115.783 18.07C116.443 18.49 117.173 18.7 117.973 18.7ZM141.779 18.73C142.139 18.73 142.429 18.67 142.649 18.55V21.64C142.109 22.06 141.349 22.27 140.369 22.27C138.669 22.27 137.539 21.63 136.979 20.35C135.659 21.71 133.939 22.39 131.819 22.39C130.179 22.39 128.849 21.93 127.829 21.01C126.809 20.09 126.299 18.88 126.299 17.38C126.299 15.78 126.879 14.56 128.039 13.72C129.199 12.88 130.589 12.46 132.209 12.46C133.909 12.46 135.349 12.77 136.529 13.39V12.94C136.529 11.06 135.209 10.12 132.569 10.12C130.949 10.12 129.439 10.54 128.039 11.38V7.84C129.559 7.04 131.409 6.64 133.589 6.64C135.749 6.64 137.469 7.16 138.749 8.2C140.069 9.24 140.729 10.68 140.729 12.52V17.59C140.729 18.35 141.079 18.73 141.779 18.73ZM136.529 17.59V16.09C135.649 15.51 134.609 15.22 133.409 15.22C132.509 15.22 131.789 15.39 131.249 15.73C130.729 16.07 130.469 16.55 130.469 17.17C130.469 17.81 130.709 18.3 131.189 18.64C131.669 18.96 132.319 19.12 133.139 19.12C134.619 19.12 135.749 18.61 136.529 17.59ZM147.766 22.39C146.526 22.39 145.546 22.06 144.826 21.4C144.126 20.72 143.776 19.67 143.776 18.25V0.999999H148.006V17.14C148.006 18.14 148.456 18.64 149.356 18.64C149.776 18.64 150.136 18.55 150.436 18.37V21.85C149.716 22.21 148.826 22.39 147.766 22.39Z" />
  </symbol>
  <symbol id="close" viewBox="0 0 30 30">
    <rect x="2.52734" y="0.13501" width="38.6792" height="2.64756" transform="rotate(45.1298 2.52734 0.13501)" fill="#111111"/>
    <rect x="0.396484" y="27.7439" width="38.6693" height="2.64756" transform="rotate(-45.13 0.396484 27.7439)" fill="#111111"/>
  </symbol>
</svg>